<svg xmlns="http://www.w3.org/2000/svg" xmlns:xlink="http://www.w3.org/1999/xlink" width="500" zoomAndPan="magnify" viewBox="0 0 375 374.999991" height="500" preserveAspectRatio="xMidYMid meet" version="1.0"><defs><g/><clipPath id="db7a9763dd"><path d="M 230.105469 169.71875 L 312.015625 169.71875 L 312.015625 205.699219 L 230.105469 205.699219 Z M 230.105469 169.71875 " clip-rule="nonzero"/></clipPath><clipPath id="f80ae3c024"><path d="M 234.605469 169.71875 L 307.515625 169.71875 C 308.710938 169.71875 309.855469 170.191406 310.699219 171.035156 C 311.542969 171.878906 312.015625 173.023438 312.015625 174.21875 L 312.015625 201.199219 C 312.015625 202.394531 311.542969 203.539062 310.699219 204.382812 C 309.855469 205.226562 308.710938 205.699219 307.515625 205.699219 L 234.605469 205.699219 C 233.410156 205.699219 232.265625 205.226562 231.421875 204.382812 C 230.578125 203.539062 230.105469 202.394531 230.105469 201.199219 L 230.105469 174.21875 C 230.105469 173.023438 230.578125 171.878906 231.421875 171.035156 C 232.265625 170.191406 233.410156 169.71875 234.605469 169.71875 " clip-rule="nonzero"/></clipPath><clipPath id="cce0727136"><path d="M 62.984375 169.71875 L 236.941406 169.71875 L 236.941406 205.699219 L 62.984375 205.699219 Z M 62.984375 169.71875 " clip-rule="nonzero"/></clipPath><clipPath id="df9907f631"><path d="M 67.484375 169.71875 L 232.441406 169.71875 C 233.632812 169.71875 234.777344 170.191406 235.621094 171.035156 C 236.464844 171.878906 236.941406 173.023438 236.941406 174.21875 L 236.941406 201.199219 C 236.941406 202.394531 236.464844 203.539062 235.621094 204.382812 C 234.777344 205.226562 233.632812 205.699219 232.441406 205.699219 L 67.484375 205.699219 C 66.289062 205.699219 65.144531 205.226562 64.300781 204.382812 C 63.457031 203.539062 62.984375 202.394531 62.984375 201.199219 L 62.984375 174.21875 C 62.984375 173.023438 63.457031 171.878906 64.300781 171.035156 C 65.144531 170.191406 66.289062 169.71875 67.484375 169.71875 " clip-rule="nonzero"/></clipPath></defs><rect x="-37.5" width="450" fill="#ffffff" y="-37.499999" height="449.999989" fill-opacity="1"/><rect x="-37.5" width="450" fill="#ffffff" y="-37.499999" height="449.999989" fill-opacity="1"/><g clip-path="url(#db7a9763dd)"><g clip-path="url(#f80ae3c024)"><path fill="#d51635" d="M 230.105469 169.71875 L 312.015625 169.71875 L 312.015625 205.699219 L 230.105469 205.699219 Z M 230.105469 169.71875 " fill-opacity="1" fill-rule="nonzero"/></g></g><g fill="#ffffff" fill-opacity="1"><g transform="translate(243.336097, 197.371715)"><g><path d="M 13.265625 -7.46875 L 10.09375 -15.65625 C 10 -15.90625 9.898438 -16.191406 9.796875 -16.515625 C 9.703125 -16.835938 9.609375 -17.179688 9.515625 -17.546875 C 9.316406 -16.785156 9.113281 -16.148438 8.90625 -15.640625 L 5.75 -7.46875 Z M 18.9375 0 L 16.828125 0 C 16.585938 0 16.390625 -0.0546875 16.234375 -0.171875 C 16.085938 -0.296875 15.976562 -0.453125 15.90625 -0.640625 L 14.015625 -5.5 L 4.984375 -5.5 L 3.109375 -0.640625 C 3.046875 -0.472656 2.9375 -0.320312 2.78125 -0.1875 C 2.625 -0.0625 2.425781 0 2.1875 0 L 0.078125 0 L 8.140625 -20.125 L 10.890625 -20.125 Z M 18.9375 0 "/></g></g></g><g fill="#ffffff" fill-opacity="1"><g transform="translate(262.344962, 197.371715)"><g><path d="M 23.515625 -20.125 L 23.515625 0 L 21.125 0 L 21.125 -14.796875 C 21.125 -14.992188 21.128906 -15.203125 21.140625 -15.421875 C 21.160156 -15.648438 21.179688 -15.878906 21.203125 -16.109375 L 14.28125 -3.53125 C 14.070312 -3.101562 13.742188 -2.890625 13.296875 -2.890625 L 12.90625 -2.890625 C 12.46875 -2.890625 12.140625 -3.101562 11.921875 -3.53125 L 4.875 -16.171875 C 4.925781 -15.671875 4.953125 -15.210938 4.953125 -14.796875 L 4.953125 0 L 2.578125 0 L 2.578125 -20.125 L 4.578125 -20.125 C 4.816406 -20.125 5.003906 -20.097656 5.140625 -20.046875 C 5.273438 -20.003906 5.398438 -19.878906 5.515625 -19.671875 L 12.46875 -7.28125 C 12.582031 -7.050781 12.691406 -6.8125 12.796875 -6.5625 C 12.910156 -6.320312 13.015625 -6.078125 13.109375 -5.828125 C 13.203125 -6.078125 13.300781 -6.328125 13.40625 -6.578125 C 13.507812 -6.828125 13.617188 -7.066406 13.734375 -7.296875 L 20.5625 -19.671875 C 20.675781 -19.878906 20.800781 -20.003906 20.9375 -20.046875 C 21.070312 -20.097656 21.257812 -20.125 21.5 -20.125 Z M 23.515625 -20.125 "/></g></g></g><g fill="#ffffff" fill-opacity="1"><g transform="translate(288.415459, 197.371715)"><g><path d="M 12.859375 -16.984375 C 12.773438 -16.835938 12.6875 -16.726562 12.59375 -16.65625 C 12.5 -16.59375 12.378906 -16.5625 12.234375 -16.5625 C 12.078125 -16.5625 11.890625 -16.640625 11.671875 -16.796875 C 11.453125 -16.953125 11.179688 -17.125 10.859375 -17.3125 C 10.535156 -17.507812 10.144531 -17.6875 9.6875 -17.84375 C 9.238281 -18.007812 8.691406 -18.09375 8.046875 -18.09375 C 7.441406 -18.09375 6.90625 -18.007812 6.4375 -17.84375 C 5.976562 -17.675781 5.585938 -17.453125 5.265625 -17.171875 C 4.953125 -16.898438 4.71875 -16.570312 4.5625 -16.1875 C 4.40625 -15.8125 4.328125 -15.398438 4.328125 -14.953125 C 4.328125 -14.390625 4.460938 -13.921875 4.734375 -13.546875 C 5.015625 -13.179688 5.378906 -12.867188 5.828125 -12.609375 C 6.285156 -12.347656 6.800781 -12.117188 7.375 -11.921875 C 7.957031 -11.734375 8.550781 -11.535156 9.15625 -11.328125 C 9.757812 -11.128906 10.347656 -10.898438 10.921875 -10.640625 C 11.492188 -10.378906 12.003906 -10.050781 12.453125 -9.65625 C 12.910156 -9.269531 13.28125 -8.789062 13.5625 -8.21875 C 13.84375 -7.644531 13.984375 -6.941406 13.984375 -6.109375 C 13.984375 -5.234375 13.832031 -4.40625 13.53125 -3.625 C 13.226562 -2.851562 12.785156 -2.179688 12.203125 -1.609375 C 11.628906 -1.046875 10.921875 -0.597656 10.078125 -0.265625 C 9.242188 0.0546875 8.296875 0.21875 7.234375 0.21875 C 5.921875 0.21875 4.726562 -0.015625 3.65625 -0.484375 C 2.59375 -0.953125 1.679688 -1.59375 0.921875 -2.40625 L 1.71875 -3.6875 C 1.789062 -3.789062 1.878906 -3.878906 1.984375 -3.953125 C 2.097656 -4.023438 2.21875 -4.0625 2.34375 -4.0625 C 2.46875 -4.0625 2.601562 -4.007812 2.75 -3.90625 C 2.90625 -3.8125 3.082031 -3.6875 3.28125 -3.53125 C 3.476562 -3.382812 3.703125 -3.222656 3.953125 -3.046875 C 4.210938 -2.867188 4.503906 -2.703125 4.828125 -2.546875 C 5.148438 -2.398438 5.515625 -2.273438 5.921875 -2.171875 C 6.335938 -2.078125 6.800781 -2.03125 7.3125 -2.03125 C 7.957031 -2.03125 8.535156 -2.117188 9.046875 -2.296875 C 9.554688 -2.484375 9.984375 -2.738281 10.328125 -3.0625 C 10.679688 -3.382812 10.953125 -3.769531 11.140625 -4.21875 C 11.328125 -4.664062 11.421875 -5.164062 11.421875 -5.71875 C 11.421875 -6.320312 11.28125 -6.816406 11 -7.203125 C 10.726562 -7.597656 10.367188 -7.925781 9.921875 -8.1875 C 9.472656 -8.445312 8.957031 -8.664062 8.375 -8.84375 C 7.789062 -9.03125 7.195312 -9.21875 6.59375 -9.40625 C 6 -9.601562 5.410156 -9.828125 4.828125 -10.078125 C 4.253906 -10.335938 3.738281 -10.664062 3.28125 -11.0625 C 2.832031 -11.46875 2.46875 -11.972656 2.1875 -12.578125 C 1.914062 -13.179688 1.78125 -13.925781 1.78125 -14.8125 C 1.78125 -15.53125 1.914062 -16.21875 2.1875 -16.875 C 2.46875 -17.539062 2.875 -18.128906 3.40625 -18.640625 C 3.9375 -19.160156 4.585938 -19.578125 5.359375 -19.890625 C 6.128906 -20.203125 7.015625 -20.359375 8.015625 -20.359375 C 9.140625 -20.359375 10.160156 -20.175781 11.078125 -19.8125 C 12.003906 -19.457031 12.820312 -18.945312 13.53125 -18.28125 Z M 12.859375 -16.984375 "/></g></g></g><g clip-path="url(#cce0727136)"><g clip-path="url(#df9907f631)"><path fill="#08154a" d="M 62.984375 169.71875 L 236.941406 169.71875 L 236.941406 205.699219 L 62.984375 205.699219 Z M 62.984375 169.71875 " fill-opacity="1" fill-rule="nonzero"/></g></g><g fill="#ffffff" fill-opacity="1"><g transform="translate(68.893037, 198.540573)"><g><path d="M 17.875 -4.453125 C 18.039062 -4.453125 18.179688 -4.382812 18.296875 -4.25 L 19.453125 -3 C 18.578125 -1.976562 17.507812 -1.179688 16.25 -0.609375 C 14.988281 -0.046875 13.46875 0.234375 11.6875 0.234375 C 10.144531 0.234375 8.738281 -0.03125 7.46875 -0.5625 C 6.207031 -1.101562 5.128906 -1.851562 4.234375 -2.8125 C 3.347656 -3.78125 2.65625 -4.941406 2.15625 -6.296875 C 1.664062 -7.648438 1.421875 -9.140625 1.421875 -10.765625 C 1.421875 -12.390625 1.675781 -13.878906 2.1875 -15.234375 C 2.707031 -16.585938 3.429688 -17.75 4.359375 -18.71875 C 5.285156 -19.695312 6.394531 -20.453125 7.6875 -20.984375 C 8.976562 -21.523438 10.40625 -21.796875 11.96875 -21.796875 C 13.5 -21.796875 14.851562 -21.546875 16.03125 -21.046875 C 17.207031 -20.554688 18.238281 -19.890625 19.125 -19.046875 L 18.171875 -17.71875 C 18.109375 -17.613281 18.03125 -17.53125 17.9375 -17.46875 C 17.84375 -17.40625 17.710938 -17.375 17.546875 -17.375 C 17.367188 -17.375 17.148438 -17.46875 16.890625 -17.65625 C 16.628906 -17.851562 16.285156 -18.070312 15.859375 -18.3125 C 15.441406 -18.550781 14.914062 -18.769531 14.28125 -18.96875 C 13.65625 -19.164062 12.878906 -19.265625 11.953125 -19.265625 C 10.835938 -19.265625 9.816406 -19.070312 8.890625 -18.6875 C 7.972656 -18.300781 7.179688 -17.738281 6.515625 -17 C 5.847656 -16.269531 5.328125 -15.378906 4.953125 -14.328125 C 4.585938 -13.273438 4.40625 -12.085938 4.40625 -10.765625 C 4.40625 -9.421875 4.597656 -8.222656 4.984375 -7.171875 C 5.367188 -6.117188 5.894531 -5.226562 6.5625 -4.5 C 7.226562 -3.769531 8.015625 -3.210938 8.921875 -2.828125 C 9.828125 -2.453125 10.804688 -2.265625 11.859375 -2.265625 C 12.503906 -2.265625 13.082031 -2.300781 13.59375 -2.375 C 14.113281 -2.457031 14.59375 -2.578125 15.03125 -2.734375 C 15.46875 -2.898438 15.875 -3.101562 16.25 -3.34375 C 16.625 -3.59375 17 -3.882812 17.375 -4.21875 C 17.539062 -4.375 17.707031 -4.453125 17.875 -4.453125 Z M 17.875 -4.453125 "/></g></g></g><g fill="#ffffff" fill-opacity="1"><g transform="translate(91.274522, 198.540573)"><g><path d="M 4.953125 -15.234375 L 4.953125 0 L 2.265625 0 L 2.265625 -15.234375 Z M 5.515625 -20.015625 C 5.515625 -19.753906 5.460938 -19.507812 5.359375 -19.28125 C 5.253906 -19.0625 5.113281 -18.863281 4.9375 -18.6875 C 4.757812 -18.507812 4.550781 -18.367188 4.3125 -18.265625 C 4.082031 -18.171875 3.835938 -18.125 3.578125 -18.125 C 3.316406 -18.125 3.070312 -18.171875 2.84375 -18.265625 C 2.625 -18.367188 2.425781 -18.507812 2.25 -18.6875 C 2.082031 -18.863281 1.945312 -19.0625 1.84375 -19.28125 C 1.75 -19.507812 1.703125 -19.753906 1.703125 -20.015625 C 1.703125 -20.273438 1.75 -20.519531 1.84375 -20.75 C 1.945312 -20.988281 2.082031 -21.195312 2.25 -21.375 C 2.425781 -21.550781 2.625 -21.6875 2.84375 -21.78125 C 3.070312 -21.882812 3.316406 -21.9375 3.578125 -21.9375 C 3.835938 -21.9375 4.082031 -21.882812 4.3125 -21.78125 C 4.550781 -21.6875 4.757812 -21.550781 4.9375 -21.375 C 5.113281 -21.195312 5.253906 -20.988281 5.359375 -20.75 C 5.460938 -20.519531 5.515625 -20.273438 5.515625 -20.015625 Z M 5.515625 -20.015625 "/></g></g></g><g fill="#ffffff" fill-opacity="1"><g transform="translate(100.780969, 198.540573)"><g><path d="M 4.640625 -13.03125 C 4.972656 -13.394531 5.320312 -13.726562 5.6875 -14.03125 C 6.0625 -14.332031 6.457031 -14.585938 6.875 -14.796875 C 7.289062 -15.015625 7.734375 -15.179688 8.203125 -15.296875 C 8.671875 -15.410156 9.175781 -15.46875 9.71875 -15.46875 C 10.550781 -15.46875 11.285156 -15.328125 11.921875 -15.046875 C 12.554688 -14.773438 13.085938 -14.382812 13.515625 -13.875 C 13.941406 -13.375 14.265625 -12.769531 14.484375 -12.0625 C 14.703125 -11.351562 14.8125 -10.566406 14.8125 -9.703125 L 14.8125 0 L 12.125 0 L 12.125 -9.703125 C 12.125 -10.847656 11.859375 -11.738281 11.328125 -12.375 C 10.804688 -13.019531 10.007812 -13.34375 8.9375 -13.34375 C 8.144531 -13.34375 7.40625 -13.148438 6.71875 -12.765625 C 6.03125 -12.390625 5.394531 -11.875 4.8125 -11.21875 L 4.8125 0 L 2.125 0 L 2.125 -15.234375 L 3.734375 -15.234375 C 4.109375 -15.234375 4.34375 -15.046875 4.4375 -14.671875 Z M 4.640625 -13.03125 "/></g></g></g><g fill="#ffffff" fill-opacity="1"><g transform="translate(119.853443, 198.540573)"><g><path d="M 6.796875 0.234375 C 5.597656 0.234375 4.671875 -0.0976562 4.015625 -0.765625 C 3.367188 -1.441406 3.046875 -2.410156 3.046875 -3.671875 L 3.046875 -13 L 1.21875 -13 C 1.0625 -13 0.925781 -13.046875 0.8125 -13.140625 C 0.695312 -13.234375 0.640625 -13.378906 0.640625 -13.578125 L 0.640625 -14.640625 L 3.140625 -14.96875 L 3.765625 -19.671875 C 3.796875 -19.816406 3.863281 -19.9375 3.96875 -20.03125 C 4.070312 -20.132812 4.207031 -20.1875 4.375 -20.1875 L 5.734375 -20.1875 L 5.734375 -14.9375 L 10.140625 -14.9375 L 10.140625 -13 L 5.734375 -13 L 5.734375 -3.84375 C 5.734375 -3.207031 5.882812 -2.734375 6.1875 -2.421875 C 6.5 -2.109375 6.90625 -1.953125 7.40625 -1.953125 C 7.675781 -1.953125 7.914062 -1.988281 8.125 -2.0625 C 8.332031 -2.144531 8.507812 -2.226562 8.65625 -2.3125 C 8.8125 -2.40625 8.941406 -2.488281 9.046875 -2.5625 C 9.148438 -2.632812 9.242188 -2.671875 9.328125 -2.671875 C 9.460938 -2.671875 9.585938 -2.585938 9.703125 -2.421875 L 10.484375 -1.140625 C 10.023438 -0.710938 9.46875 -0.375 8.8125 -0.125 C 8.15625 0.113281 7.484375 0.234375 6.796875 0.234375 Z M 6.796875 0.234375 "/></g></g></g><g fill="#ffffff" fill-opacity="1"><g transform="translate(132.924586, 198.540573)"><g><path d="M 12.3125 -9.28125 C 12.3125 -9.90625 12.222656 -10.472656 12.046875 -10.984375 C 11.878906 -11.503906 11.625 -11.953125 11.28125 -12.328125 C 10.945312 -12.703125 10.539062 -12.988281 10.0625 -13.1875 C 9.582031 -13.394531 9.035156 -13.5 8.421875 -13.5 C 7.140625 -13.5 6.125 -13.125 5.375 -12.375 C 4.625 -11.632812 4.160156 -10.601562 3.984375 -9.28125 Z M 14.484375 -2.140625 C 14.148438 -1.734375 13.753906 -1.378906 13.296875 -1.078125 C 12.835938 -0.785156 12.34375 -0.546875 11.8125 -0.359375 C 11.289062 -0.171875 10.75 -0.03125 10.1875 0.0625 C 9.625 0.15625 9.066406 0.203125 8.515625 0.203125 C 7.460938 0.203125 6.488281 0.0234375 5.59375 -0.328125 C 4.707031 -0.679688 3.941406 -1.203125 3.296875 -1.890625 C 2.648438 -2.578125 2.144531 -3.425781 1.78125 -4.4375 C 1.425781 -5.445312 1.25 -6.609375 1.25 -7.921875 C 1.25 -8.984375 1.410156 -9.972656 1.734375 -10.890625 C 2.054688 -11.816406 2.523438 -12.617188 3.140625 -13.296875 C 3.753906 -13.972656 4.5 -14.503906 5.375 -14.890625 C 6.257812 -15.273438 7.253906 -15.46875 8.359375 -15.46875 C 9.273438 -15.46875 10.117188 -15.316406 10.890625 -15.015625 C 11.671875 -14.710938 12.34375 -14.269531 12.90625 -13.6875 C 13.476562 -13.113281 13.921875 -12.398438 14.234375 -11.546875 C 14.554688 -10.703125 14.71875 -9.738281 14.71875 -8.65625 C 14.71875 -8.238281 14.671875 -7.957031 14.578125 -7.8125 C 14.492188 -7.675781 14.328125 -7.609375 14.078125 -7.609375 L 3.890625 -7.609375 C 3.921875 -6.648438 4.050781 -5.8125 4.28125 -5.09375 C 4.519531 -4.382812 4.847656 -3.789062 5.265625 -3.3125 C 5.691406 -2.84375 6.195312 -2.488281 6.78125 -2.25 C 7.363281 -2.007812 8.015625 -1.890625 8.734375 -1.890625 C 9.410156 -1.890625 9.988281 -1.96875 10.46875 -2.125 C 10.957031 -2.28125 11.375 -2.445312 11.71875 -2.625 C 12.070312 -2.8125 12.367188 -2.984375 12.609375 -3.140625 C 12.847656 -3.296875 13.050781 -3.375 13.21875 -3.375 C 13.4375 -3.375 13.609375 -3.285156 13.734375 -3.109375 Z M 14.484375 -2.140625 "/></g></g></g><g fill="#ffffff" fill-opacity="1"><g transform="translate(151.09461, 198.540573)"><g><path d="M 4.890625 -22.15625 L 4.890625 0 L 2.203125 0 L 2.203125 -22.15625 Z M 4.890625 -22.15625 "/></g></g></g><g fill="#ffffff" fill-opacity="1"><g transform="translate(160.79812, 198.540573)"><g><path d="M 17.875 -4.453125 C 18.039062 -4.453125 18.179688 -4.382812 18.296875 -4.25 L 19.453125 -3 C 18.578125 -1.976562 17.507812 -1.179688 16.25 -0.609375 C 14.988281 -0.046875 13.46875 0.234375 11.6875 0.234375 C 10.144531 0.234375 8.738281 -0.03125 7.46875 -0.5625 C 6.207031 -1.101562 5.128906 -1.851562 4.234375 -2.8125 C 3.347656 -3.78125 2.65625 -4.941406 2.15625 -6.296875 C 1.664062 -7.648438 1.421875 -9.140625 1.421875 -10.765625 C 1.421875 -12.390625 1.675781 -13.878906 2.1875 -15.234375 C 2.707031 -16.585938 3.429688 -17.75 4.359375 -18.71875 C 5.285156 -19.695312 6.394531 -20.453125 7.6875 -20.984375 C 8.976562 -21.523438 10.40625 -21.796875 11.96875 -21.796875 C 13.5 -21.796875 14.851562 -21.546875 16.03125 -21.046875 C 17.207031 -20.554688 18.238281 -19.890625 19.125 -19.046875 L 18.171875 -17.71875 C 18.109375 -17.613281 18.03125 -17.53125 17.9375 -17.46875 C 17.84375 -17.40625 17.710938 -17.375 17.546875 -17.375 C 17.367188 -17.375 17.148438 -17.46875 16.890625 -17.65625 C 16.628906 -17.851562 16.285156 -18.070312 15.859375 -18.3125 C 15.441406 -18.550781 14.914062 -18.769531 14.28125 -18.96875 C 13.65625 -19.164062 12.878906 -19.265625 11.953125 -19.265625 C 10.835938 -19.265625 9.816406 -19.070312 8.890625 -18.6875 C 7.972656 -18.300781 7.179688 -17.738281 6.515625 -17 C 5.847656 -16.269531 5.328125 -15.378906 4.953125 -14.328125 C 4.585938 -13.273438 4.40625 -12.085938 4.40625 -10.765625 C 4.40625 -9.421875 4.597656 -8.222656 4.984375 -7.171875 C 5.367188 -6.117188 5.894531 -5.226562 6.5625 -4.5 C 7.226562 -3.769531 8.015625 -3.210938 8.921875 -2.828125 C 9.828125 -2.453125 10.804688 -2.265625 11.859375 -2.265625 C 12.503906 -2.265625 13.082031 -2.300781 13.59375 -2.375 C 14.113281 -2.457031 14.59375 -2.578125 15.03125 -2.734375 C 15.46875 -2.898438 15.875 -3.101562 16.25 -3.34375 C 16.625 -3.59375 17 -3.882812 17.375 -4.21875 C 17.539062 -4.375 17.707031 -4.453125 17.875 -4.453125 Z M 17.875 -4.453125 "/></g></g></g><g fill="#ffffff" fill-opacity="1"><g transform="translate(183.179605, 198.540573)"><g><path d="M 8.546875 -15.46875 C 9.660156 -15.46875 10.660156 -15.28125 11.546875 -14.90625 C 12.441406 -14.539062 13.203125 -14.015625 13.828125 -13.328125 C 14.460938 -12.648438 14.945312 -11.828125 15.28125 -10.859375 C 15.625 -9.898438 15.796875 -8.820312 15.796875 -7.625 C 15.796875 -6.414062 15.625 -5.332031 15.28125 -4.375 C 14.945312 -3.414062 14.460938 -2.59375 13.828125 -1.90625 C 13.203125 -1.226562 12.441406 -0.707031 11.546875 -0.34375 C 10.660156 0.0195312 9.660156 0.203125 8.546875 0.203125 C 7.421875 0.203125 6.410156 0.0195312 5.515625 -0.34375 C 4.617188 -0.707031 3.851562 -1.226562 3.21875 -1.90625 C 2.582031 -2.59375 2.097656 -3.414062 1.765625 -4.375 C 1.429688 -5.332031 1.265625 -6.414062 1.265625 -7.625 C 1.265625 -8.820312 1.429688 -9.898438 1.765625 -10.859375 C 2.097656 -11.828125 2.582031 -12.648438 3.21875 -13.328125 C 3.851562 -14.015625 4.617188 -14.539062 5.515625 -14.90625 C 6.410156 -15.28125 7.421875 -15.46875 8.546875 -15.46875 Z M 8.546875 -1.875 C 10.046875 -1.875 11.164062 -2.378906 11.90625 -3.390625 C 12.65625 -4.398438 13.03125 -5.804688 13.03125 -7.609375 C 13.03125 -9.421875 12.65625 -10.832031 11.90625 -11.84375 C 11.164062 -12.863281 10.046875 -13.375 8.546875 -13.375 C 7.785156 -13.375 7.117188 -13.242188 6.546875 -12.984375 C 5.984375 -12.722656 5.515625 -12.34375 5.140625 -11.84375 C 4.765625 -11.351562 4.484375 -10.75 4.296875 -10.03125 C 4.109375 -9.320312 4.015625 -8.515625 4.015625 -7.609375 C 4.015625 -5.804688 4.382812 -4.398438 5.125 -3.390625 C 5.875 -2.378906 7.015625 -1.875 8.546875 -1.875 Z M 8.546875 -1.875 "/></g></g></g><g fill="#ffffff" fill-opacity="1"><g transform="translate(202.52282, 198.540573)"><g><path d="M 4.65625 -12.1875 C 5.144531 -13.226562 5.738281 -14.039062 6.4375 -14.625 C 7.132812 -15.207031 7.992188 -15.5 9.015625 -15.5 C 9.328125 -15.5 9.628906 -15.460938 9.921875 -15.390625 C 10.222656 -15.328125 10.488281 -15.21875 10.71875 -15.0625 L 10.53125 -13.0625 C 10.46875 -12.8125 10.316406 -12.6875 10.078125 -12.6875 C 9.929688 -12.6875 9.722656 -12.71875 9.453125 -12.78125 C 9.179688 -12.84375 8.878906 -12.875 8.546875 -12.875 C 8.054688 -12.875 7.625 -12.800781 7.25 -12.65625 C 6.875 -12.519531 6.539062 -12.3125 6.25 -12.03125 C 5.957031 -11.757812 5.691406 -11.421875 5.453125 -11.015625 C 5.210938 -10.609375 5 -10.144531 4.8125 -9.625 L 4.8125 0 L 2.125 0 L 2.125 -15.234375 L 3.65625 -15.234375 C 3.945312 -15.234375 4.144531 -15.175781 4.25 -15.0625 C 4.363281 -14.957031 4.441406 -14.769531 4.484375 -14.5 Z M 4.65625 -12.1875 "/></g></g></g><g fill="#ffffff" fill-opacity="1"><g transform="translate(215.759413, 198.540573)"><g><path d="M 12.3125 -9.28125 C 12.3125 -9.90625 12.222656 -10.472656 12.046875 -10.984375 C 11.878906 -11.503906 11.625 -11.953125 11.28125 -12.328125 C 10.945312 -12.703125 10.539062 -12.988281 10.0625 -13.1875 C 9.582031 -13.394531 9.035156 -13.5 8.421875 -13.5 C 7.140625 -13.5 6.125 -13.125 5.375 -12.375 C 4.625 -11.632812 4.160156 -10.601562 3.984375 -9.28125 Z M 14.484375 -2.140625 C 14.148438 -1.734375 13.753906 -1.378906 13.296875 -1.078125 C 12.835938 -0.785156 12.34375 -0.546875 11.8125 -0.359375 C 11.289062 -0.171875 10.75 -0.03125 10.1875 0.0625 C 9.625 0.15625 9.066406 0.203125 8.515625 0.203125 C 7.460938 0.203125 6.488281 0.0234375 5.59375 -0.328125 C 4.707031 -0.679688 3.941406 -1.203125 3.296875 -1.890625 C 2.648438 -2.578125 2.144531 -3.425781 1.78125 -4.4375 C 1.425781 -5.445312 1.25 -6.609375 1.25 -7.921875 C 1.25 -8.984375 1.410156 -9.972656 1.734375 -10.890625 C 2.054688 -11.816406 2.523438 -12.617188 3.140625 -13.296875 C 3.753906 -13.972656 4.5 -14.503906 5.375 -14.890625 C 6.257812 -15.273438 7.253906 -15.46875 8.359375 -15.46875 C 9.273438 -15.46875 10.117188 -15.316406 10.890625 -15.015625 C 11.671875 -14.710938 12.34375 -14.269531 12.90625 -13.6875 C 13.476562 -13.113281 13.921875 -12.398438 14.234375 -11.546875 C 14.554688 -10.703125 14.71875 -9.738281 14.71875 -8.65625 C 14.71875 -8.238281 14.671875 -7.957031 14.578125 -7.8125 C 14.492188 -7.675781 14.328125 -7.609375 14.078125 -7.609375 L 3.890625 -7.609375 C 3.921875 -6.648438 4.050781 -5.8125 4.28125 -5.09375 C 4.519531 -4.382812 4.847656 -3.789062 5.265625 -3.3125 C 5.691406 -2.84375 6.195312 -2.488281 6.78125 -2.25 C 7.363281 -2.007812 8.015625 -1.890625 8.734375 -1.890625 C 9.410156 -1.890625 9.988281 -1.96875 10.46875 -2.125 C 10.957031 -2.28125 11.375 -2.445312 11.71875 -2.625 C 12.070312 -2.8125 12.367188 -2.984375 12.609375 -3.140625 C 12.847656 -3.296875 13.050781 -3.375 13.21875 -3.375 C 13.4375 -3.375 13.609375 -3.285156 13.734375 -3.109375 Z M 14.484375 -2.140625 "/></g></g></g></svg>