<svg width="456" height="270" viewBox="0 0 456 270" fill="none" xmlns="http://www.w3.org/2000/svg">
<g clip-path="url(#clip0_31_535)">
<path d="M120.531 146.357L120.044 146.248C133.537 86.5698 192.854 49.1301 252.532 62.6236C272.896 67.2281 291.545 77.4935 306.329 92.2366C321.112 106.98 331.429 125.6 336.089 145.952L335.602 146.063C324.115 95.6228 279.908 60.3938 228.1 60.3938C176.97 60.3959 131.731 96.5479 120.531 146.357Z" fill="#E6E6E6"/>
<path d="M456 259.244H0V0H456V259.244ZM0.844444 258.4H455.156V0.844444H0.844444V258.4Z" fill="#3F3D56"/>
<path d="M31.2444 30.4C33.3431 30.4 35.0444 28.6987 35.0444 26.6C35.0444 24.5013 33.3431 22.8 31.2444 22.8C29.1457 22.8 27.4444 24.5013 27.4444 26.6C27.4444 28.6987 29.1457 30.4 31.2444 30.4Z" fill="#6C63FF"/>
<path d="M42.6444 30.4C44.7431 30.4 46.4444 28.6987 46.4444 26.6C46.4444 24.5013 44.7431 22.8 42.6444 22.8C40.5457 22.8 38.8444 24.5013 38.8444 26.6C38.8444 28.6987 40.5457 30.4 42.6444 30.4Z" fill="#F2F2F2"/>
<path d="M54.0444 30.4C56.1431 30.4 57.8444 28.6987 57.8444 26.6C57.8444 24.5013 56.1431 22.8 54.0444 22.8C51.9458 22.8 50.2444 24.5013 50.2444 26.6C50.2444 28.6987 51.9458 30.4 54.0444 30.4Z" fill="#F2F2F2"/>
<path d="M437.844 216.269V244.467H407.816C409.417 237.297 413.136 230.775 418.491 225.746C423.845 220.718 430.589 217.415 437.844 216.269Z" fill="#E6E6E6"/>
<path d="M384.991 77.3089L384.72 76.9838L283.645 160.808L283.32 161.078L353.354 245.522H354.451L284.51 161.188L384.611 78.1745L437.844 142.365V141.039L384.991 77.3089Z" fill="#E6E6E6"/>
<path d="M297.47 120.125C311.856 120.125 323.518 108.463 323.518 94.0774C323.518 79.6917 311.856 68.0297 297.47 68.0297C283.084 68.0297 271.422 79.6917 271.422 94.0774C271.422 108.463 283.084 120.125 297.47 120.125Z" fill="#A0616A"/>
<path d="M340.77 149.035L326.275 191.061V191.064L319.289 211.327C319.289 211.327 318.576 243.545 317.859 243.545C317.711 243.545 317.499 244.009 317.261 244.74H247.85L253.42 185.549L253.079 182.792L248.721 147.439C248.227 143.428 249.119 139.369 251.248 135.935C253.378 132.5 256.617 129.897 260.429 128.557L267.711 125.997C277.263 122.639 287.531 121.856 297.482 123.727C306.324 125.39 314.654 129.099 321.806 134.559L340.77 149.035Z" fill="#6C63FF"/>
<path d="M320.058 73.0917C320.058 73.0917 311.788 55.1735 295.936 59.3083C280.083 63.4431 271.125 69.646 270.436 75.8484C269.747 82.0509 270.781 91.355 270.781 91.355C270.781 91.355 272.504 78.6038 283.532 81.3618C294.56 84.1198 311.788 82.0509 311.788 82.0509L314.545 106.861C314.545 106.861 317.646 102.381 321.092 105.138C324.537 107.895 331.085 78.6051 320.058 73.0917Z" fill="#2F2E41"/>
<path d="M354.374 214.191C354.374 214.191 354.374 230.55 348.361 244.74H327.701L327.883 244.261L333.61 219.2L331.463 210.61L326.275 191.064V191.061C323.579 180.901 323.738 170.195 326.733 160.12L326.968 159.33C327.853 156.356 329.674 153.747 332.161 151.892C334.648 150.037 337.667 149.035 340.77 149.035C340.77 149.035 350.077 156.912 349.36 171.946L354.374 214.191Z" fill="#6C63FF"/>
<path d="M413.941 51.5276C411.154 51.5276 408.43 50.7011 406.112 49.1526C403.795 47.6042 401.988 45.4033 400.922 42.8283C399.855 40.2533 399.576 37.4199 400.12 34.6863C400.664 31.9527 402.006 29.4417 403.977 27.4709C405.947 25.5001 408.458 24.1579 411.192 23.6142C413.926 23.0704 416.759 23.3495 419.334 24.4161C421.909 25.4827 424.11 27.2889 425.658 29.6063C427.207 31.9238 428.033 34.6483 428.033 37.4355C428.033 41.173 426.549 44.7573 423.906 47.4001C421.263 50.0429 417.679 51.5276 413.941 51.5276ZM413.941 23.9987C411.284 23.9987 408.686 24.7867 406.476 26.2632C404.266 27.7397 402.544 29.8382 401.527 32.2935C400.51 34.7487 400.244 37.4504 400.763 40.0569C401.281 42.6634 402.561 45.0576 404.44 46.9367C406.319 48.8159 408.713 50.0957 411.32 50.6141C413.926 51.1326 416.628 50.8665 419.083 49.8495C421.539 48.8325 423.637 47.1103 425.114 44.9006C426.59 42.6909 427.378 40.093 427.378 37.4355C427.378 35.6709 427.03 33.9237 426.355 32.2935C425.68 30.6632 424.69 29.182 423.442 27.9342C422.195 26.6865 420.714 25.6968 419.083 25.0215C417.453 24.3462 415.706 23.9987 413.941 23.9987Z" fill="#CCCCCC"/>
<path d="M437.844 245.522H18.1556V13.7222H437.844V245.522ZM18.9329 244.767H437.067V14.4772H18.9329V244.767Z" fill="#CCCCCC"/>
<path d="M419.878 32.0762L419.57 31.7684L413.847 37.4917L408.124 31.7684L407.816 32.0762L413.539 37.799L408.578 42.7601L408.886 43.0679L413.847 38.1068L418.808 43.0679L419.116 42.7601L414.155 37.799L419.878 32.0762Z" fill="#3F3D56"/>
<path d="M175.571 146.699H32.4908C31.153 146.701 29.8705 147.234 28.9246 148.18C27.9786 149.126 27.4463 150.408 27.4444 151.746V206.959C27.4457 208.297 27.9778 209.58 28.9238 210.527C29.8698 211.473 31.1526 212.006 32.4908 212.008H175.571C176.909 212.006 178.191 211.473 179.137 210.527C180.083 209.581 180.615 208.299 180.617 206.961V151.746C180.615 150.408 180.083 149.126 179.137 148.18C178.191 147.234 176.909 146.701 175.571 146.699ZM180.024 206.959C180.022 208.14 179.553 209.272 178.718 210.106C177.883 210.941 176.751 211.411 175.571 211.412H32.4908C31.3103 211.411 30.1786 210.941 29.3438 210.106C28.5091 209.272 28.0395 208.14 28.038 206.959V151.746C28.0395 150.565 28.5091 149.434 29.3438 148.599C30.1786 147.764 31.3103 147.295 32.4908 147.293H175.571C176.751 147.295 177.883 147.764 178.718 148.599C179.553 149.434 180.022 150.565 180.024 151.746V206.959Z" fill="#3F3D56"/>
<path d="M167.201 162.743H92.2476C90.0706 162.743 88.2829 164.179 88.198 165.989C88.1927 166.033 88.1906 166.077 88.1917 166.121C88.1947 167.986 90.0073 169.496 92.2476 169.499H167.201C169.441 169.499 171.257 167.987 171.257 166.121C171.257 164.256 169.442 162.743 167.201 162.743Z" fill="#6C63FF"/>
<path d="M167.201 176.255H92.2476C90.0706 176.255 88.2829 177.691 88.198 179.5C88.1927 179.544 88.1906 179.588 88.1917 179.633C88.1947 181.497 90.0073 183.008 92.2476 183.011H167.201C169.441 183.011 171.257 181.498 171.257 179.633C171.257 177.767 169.441 176.255 167.201 176.255Z" fill="#6C63FF"/>
<path d="M167.201 189.766H92.2476C90.0706 189.766 88.2829 191.202 88.198 193.011C88.1927 193.055 88.1906 193.1 88.1917 193.144C88.1947 195.008 90.0073 196.519 92.2476 196.522H167.201C169.441 196.522 171.257 195.009 171.257 193.144C171.257 191.279 169.442 189.766 167.201 189.766Z" fill="#6C63FF"/>
<path d="M56.9949 197.366C53.4581 197.366 50.0008 196.317 47.06 194.352C44.1193 192.387 41.8272 189.594 40.4738 186.327C39.1203 183.059 38.7662 179.463 39.4562 175.995C40.1462 172.526 41.8493 169.339 44.3502 166.839C46.8511 164.338 50.0374 162.634 53.5063 161.945C56.9751 161.255 60.5706 161.609 63.8382 162.962C67.1058 164.316 69.8986 166.608 71.8636 169.548C73.8285 172.489 74.8773 175.946 74.8773 179.483C74.8773 184.226 72.9933 188.774 69.6397 192.128C66.2861 195.482 61.7376 197.366 56.9949 197.366ZM56.9949 162.218C53.5801 162.218 50.242 163.23 47.4027 165.128C44.5634 167.025 42.3505 169.721 41.0437 172.876C39.7369 176.031 39.395 179.502 40.0612 182.852C40.7274 186.201 42.3717 189.277 44.7864 191.692C47.201 194.106 50.2774 195.751 53.6266 196.417C56.9758 197.083 60.4473 196.741 63.6022 195.435C66.757 194.128 69.4535 191.915 71.3507 189.076C73.2478 186.236 74.2604 182.898 74.2604 179.483C74.2604 174.904 72.4414 170.513 69.2035 167.275C65.9656 164.037 61.574 162.218 56.9949 162.218Z" fill="#3F3D56"/>
<path d="M124.978 237.711H109.778V222.511H124.978V237.711ZM110.622 236.867H124.133V223.356H110.622V236.867Z" fill="#FF6584"/>
<path d="M91.7003 232.866L86.2701 227.889L86.841 227.267L91.5441 231.578L102.249 215.521L102.951 215.99L91.7003 232.866Z" fill="#3F3D56"/>
<path d="M97.1111 226.311V236.867H83.6V223.356H94.1556V222.511H82.7556V237.711H97.9556V226.311H97.1111Z" fill="#E5E5E5"/>
<path d="M50.4555 195.067C55.9354 195.067 60.3778 190.624 60.3778 185.144C60.3778 179.665 55.9354 175.222 50.4555 175.222C44.9757 175.222 40.5333 179.665 40.5333 185.144C40.5333 190.624 44.9757 195.067 50.4555 195.067Z" fill="#6C63FF"/>
<path d="M180.247 261.394C180.307 260.239 180.619 259.112 181.162 258.092C181.705 257.071 182.464 256.182 183.388 255.487C184.311 254.792 185.376 254.308 186.506 254.069C187.637 253.83 188.807 253.841 189.932 254.103L204.913 230.336L210.937 243.634L195.788 264.165C195.223 266.027 193.995 267.617 192.336 268.634C190.677 269.651 188.702 270.024 186.787 269.682C184.871 269.34 183.147 268.308 181.942 266.78C180.737 265.253 180.134 263.336 180.247 261.394Z" fill="#A0616A"/>
<path d="M258.475 131.256L257.648 131.402C248.36 133.042 240.485 139.383 237.233 148.237C237.136 148.502 237.042 148.769 236.953 149.038L231.225 174.812L191.846 249.99L204.019 257.149C204.019 257.149 237.67 217.77 241.966 204.166L259.263 170.901C260.127 169.241 260.543 167.384 260.471 165.513L259.174 131.82C259.171 131.735 259.149 131.651 259.111 131.575C259.073 131.499 259.019 131.432 258.953 131.379C258.886 131.325 258.809 131.287 258.727 131.265C258.644 131.244 258.558 131.241 258.475 131.256Z" fill="#6C63FF"/>
</g>
<defs>
<clipPath id="clip0_31_535">
<rect width="456" height="269.806" fill="white"/>
</clipPath>
</defs>
</svg>
